<svg xmlns="http://www.w3.org/2000/svg" xmlns:xlink="http://www.w3.org/1999/xlink" width="600" height="400" viewBox="0 0 600 400">
  <defs>
    <filter id="Shapes_00021" x="-34" y="28.381" width="668" height="375.237" filterUnits="userSpaceOnUse">
      <feOffset dy="16" input="SourceAlpha"/>
      <feGaussianBlur stdDeviation="28" result="blur"/>
      <feFlood flood-opacity="0.161"/>
      <feComposite operator="in" in2="blur"/>
      <feComposite in="SourceGraphic"/>
    </filter>
    <filter id="Shapes_00021-2" x="-34" y="28.381" width="668" height="375.237" filterUnits="userSpaceOnUse">
      <feOffset dy="16" input="SourceAlpha"/>
      <feGaussianBlur stdDeviation="28" result="blur-2"/>
      <feFlood flood-opacity="0.161"/>
      <feComposite operator="in" in2="blur-2"/>
      <feComposite in="SourceGraphic"/>
    </filter>
    <clipPath id="clip-Card:_Tekst_Afbeelding">
      <rect width="600" height="400"/>
    </clipPath>
  </defs>
  <g id="Card:_Tekst_Afbeelding" data-name="Card: Tekst/Afbeelding" clip-path="url(#clip-Card:_Tekst_Afbeelding)">
    <rect width="600" height="400" fill="#fff"/>
    <g id="Group_1070" data-name="Group 1070">
      <g transform="matrix(1, 0, 0, 1, 0, 0)" filter="url(#Shapes_00021)">
        <path id="Shapes_00021-3" data-name="Shapes #00021" d="M9.868,0H490.132C495.582,0,500,5.252,500,11.73V195.506c0,6.479-4.418,11.73-9.868,11.73H9.868c-5.45,0-9.868-5.252-9.868-11.73V11.73C0,5.252,4.418,0,9.868,0Z" transform="translate(50 96.38)" fill="#fff"/>
      </g>
      <g transform="matrix(1, 0, 0, 1, 0, 0)" filter="url(#Shapes_00021-2)">
        <path id="Shapes_00021-4" data-name="Shapes #00021" d="M9.868,0H490.132C495.582,0,500,5.252,500,11.73V195.506c0,6.479-4.418,11.73-9.868,11.73H9.868c-5.45,0-9.868-5.252-9.868-11.73V11.73C0,5.252,4.418,0,9.868,0Z" transform="translate(50 96.38)" fill="#fff"/>
      </g>
      <g id="Group_1051" data-name="Group 1051" transform="translate(-9 -15.666)">
        <g id="Group_1048" data-name="Group 1048" transform="translate(-494 -102.056)">
          <g id="Group_1046" data-name="Group 1046" transform="translate(589 282.388)">
            <rect id="Rectangle_379" data-name="Rectangle 379" width="96.739" height="11" rx="5.5" transform="translate(0)"/>
          </g>
          <g id="Group_1047" data-name="Group 1047" transform="translate(692 282.388)">
            <rect id="Rectangle_379-2" data-name="Rectangle 379" width="33.486" height="11" rx="5.5" transform="translate(0)"/>
          </g>
        </g>
        <g id="Group_1050" data-name="Group 1050" transform="translate(0 -2)">
          <rect id="Rectangle_2445" data-name="Rectangle 2445" width="162.663" height="5" rx="2.5" transform="translate(95 206.219)" fill="#0a718b" opacity="0.76"/>
          <rect id="Rectangle_2446" data-name="Rectangle 2446" width="140" height="5" rx="2.5" transform="translate(95 217.669)" fill="#0a718b" opacity="0.76"/>
        </g>
        <g id="Group_1049" data-name="Group 1049" transform="translate(-108 7)">
          <g id="Group_73" data-name="Group 73" transform="translate(203 230.198)">
            <g id="Group_45" data-name="Group 45" transform="translate(0 0)">
              <rect id="Rectangle_4" data-name="Rectangle 4" width="48" height="17" rx="4" transform="translate(0 -0.198)" fill="#0a718b"/>
            </g>
          </g>
          <g id="Group_74" data-name="Group 74" transform="translate(258.724 230.198)">
            <g id="Group_45-2" data-name="Group 45" transform="translate(0 0)">
              <path id="Rectangle_4-2" data-name="Rectangle 4" d="M4,2A2,2,0,0,0,2,4v9a2,2,0,0,0,2,2H40a2,2,0,0,0,2-2V4a2,2,0,0,0-2-2H4M4,0H40a4,4,0,0,1,4,4v9a4,4,0,0,1-4,4H4a4,4,0,0,1-4-4V4A4,4,0,0,1,4,0Z" transform="translate(0.276 -0.198)" fill="#d1d5db"/>
            </g>
          </g>
        </g>
      </g>
      <path id="Subtraction_1" data-name="Subtraction 1" d="M-1691.561,252h-50.878a26.577,26.577,0,0,1,3.264-8.342,26.415,26.415,0,0,1,5.7-6.656,25.78,25.78,0,0,1,7.576-4.407A25.482,25.482,0,0,1-1717,231a25.485,25.485,0,0,1,8.9,1.594,25.781,25.781,0,0,1,7.576,4.407,26.412,26.412,0,0,1,5.7,6.656,26.573,26.573,0,0,1,3.264,8.341Zm-130.01,0h-51.857a26.288,26.288,0,0,1,3.327-8.342A26.559,26.559,0,0,1-1864.3,237a26.4,26.4,0,0,1,7.722-4.407A26.42,26.42,0,0,1-1847.5,231a26.421,26.421,0,0,1,9.074,1.594A26.4,26.4,0,0,1-1830.7,237a26.557,26.557,0,0,1,5.806,6.656,26.284,26.284,0,0,1,3.326,8.341Zm39.071-4a26.332,26.332,0,0,1-10.315-2.083,26.414,26.414,0,0,1-8.423-5.679,26.413,26.413,0,0,1-5.679-8.423A26.333,26.333,0,0,1-1809,221.5a26.336,26.336,0,0,1,2.083-10.315,26.414,26.414,0,0,1,5.679-8.424,26.411,26.411,0,0,1,8.423-5.679A26.331,26.331,0,0,1-1782.5,195a26.334,26.334,0,0,1,10.315,2.083,26.415,26.415,0,0,1,8.424,5.679,26.414,26.414,0,0,1,5.679,8.424A26.336,26.336,0,0,1-1756,221.5a26.333,26.333,0,0,1-2.083,10.315,26.413,26.413,0,0,1-5.679,8.423,26.413,26.413,0,0,1-8.424,5.679A26.334,26.334,0,0,1-1782.5,248Zm65.5-38a25.835,25.835,0,0,1-10.12-2.043,25.912,25.912,0,0,1-8.264-5.572,25.913,25.913,0,0,1-5.572-8.264A25.837,25.837,0,0,1-1743,184a25.836,25.836,0,0,1,2.043-10.12,25.914,25.914,0,0,1,5.572-8.264,25.911,25.911,0,0,1,8.264-5.572A25.836,25.836,0,0,1-1717,158a25.838,25.838,0,0,1,10.12,2.043,25.913,25.913,0,0,1,8.264,5.572,25.914,25.914,0,0,1,5.572,8.264A25.84,25.84,0,0,1-1691,184a25.84,25.84,0,0,1-2.043,10.12,25.916,25.916,0,0,1-5.572,8.264,25.912,25.912,0,0,1-8.264,5.572A25.838,25.838,0,0,1-1717,210Zm-130.5,0a26.772,26.772,0,0,1-10.315-2.043,26.447,26.447,0,0,1-8.423-5.572,25.889,25.889,0,0,1-5.679-8.264A25.415,25.415,0,0,1-1874,184a25.416,25.416,0,0,1,2.083-10.12,25.889,25.889,0,0,1,5.679-8.264,26.446,26.446,0,0,1,8.423-5.572A26.772,26.772,0,0,1-1847.5,158a26.773,26.773,0,0,1,10.315,2.043,26.446,26.446,0,0,1,8.423,5.572,25.889,25.889,0,0,1,5.679,8.264A25.416,25.416,0,0,1-1821,184a25.415,25.415,0,0,1-2.083,10.12,25.89,25.89,0,0,1-5.679,8.264,26.446,26.446,0,0,1-8.423,5.572A26.773,26.773,0,0,1-1847.5,210Zm65-36a26.332,26.332,0,0,1-10.315-2.083,26.412,26.412,0,0,1-8.423-5.679,26.412,26.412,0,0,1-5.679-8.424A26.336,26.336,0,0,1-1809,147.5a26.333,26.333,0,0,1,2.083-10.315,26.412,26.412,0,0,1,5.679-8.423,26.415,26.415,0,0,1,8.423-5.679A26.333,26.333,0,0,1-1782.5,121a26.335,26.335,0,0,1,10.315,2.083,26.415,26.415,0,0,1,8.424,5.679,26.412,26.412,0,0,1,5.679,8.423A26.333,26.333,0,0,1-1756,147.5a26.335,26.335,0,0,1-2.083,10.315,26.413,26.413,0,0,1-5.679,8.424,26.412,26.412,0,0,1-8.424,5.679A26.335,26.335,0,0,1-1782.5,174Zm65.5-36a25.415,25.415,0,0,1-10.12-2.083,25.89,25.89,0,0,1-8.264-5.679,26.445,26.445,0,0,1-5.572-8.423A26.772,26.772,0,0,1-1743,111.5a26.771,26.771,0,0,1,2.043-10.315,26.443,26.443,0,0,1,5.572-8.423,25.891,25.891,0,0,1,8.264-5.679A25.416,25.416,0,0,1-1717,85a25.418,25.418,0,0,1,10.12,2.082,25.891,25.891,0,0,1,8.265,5.679,26.445,26.445,0,0,1,5.572,8.423A26.775,26.775,0,0,1-1691,111.5a26.775,26.775,0,0,1-2.043,10.315,26.448,26.448,0,0,1-5.572,8.423,25.891,25.891,0,0,1-8.265,5.679A25.416,25.416,0,0,1-1717,138Zm-130.5,0a26.332,26.332,0,0,1-10.315-2.083,26.412,26.412,0,0,1-8.423-5.679,26.409,26.409,0,0,1-5.679-8.423A26.334,26.334,0,0,1-1874,111.5a26.333,26.333,0,0,1,2.083-10.315,26.408,26.408,0,0,1,5.679-8.423,26.41,26.41,0,0,1,8.423-5.679A26.334,26.334,0,0,1-1847.5,85a26.336,26.336,0,0,1,10.315,2.082,26.411,26.411,0,0,1,8.423,5.679,26.41,26.41,0,0,1,5.679,8.423A26.333,26.333,0,0,1-1821,111.5a26.333,26.333,0,0,1-2.083,10.315,26.409,26.409,0,0,1-5.679,8.423,26.412,26.412,0,0,1-8.423,5.679A26.335,26.335,0,0,1-1847.5,138Zm65-37a26.332,26.332,0,0,1-10.315-2.083,26.412,26.412,0,0,1-8.423-5.679,26.412,26.412,0,0,1-5.679-8.423A26.336,26.336,0,0,1-1809,74.5a26.333,26.333,0,0,1,2.083-10.315,26.413,26.413,0,0,1,5.679-8.423,26.413,26.413,0,0,1,8.423-5.679A26.331,26.331,0,0,1-1782.5,48a26.334,26.334,0,0,1,10.315,2.083,26.414,26.414,0,0,1,8.424,5.679,26.413,26.413,0,0,1,5.679,8.423A26.333,26.333,0,0,1-1756,74.5a26.336,26.336,0,0,1-2.083,10.315,26.413,26.413,0,0,1-5.679,8.423,26.413,26.413,0,0,1-8.424,5.679A26.334,26.334,0,0,1-1782.5,101Zm65.5-36a25.062,25.062,0,0,1-8.812-1.591,25.658,25.658,0,0,1-7.52-4.4,26.77,26.77,0,0,1-5.693-6.655,27.37,27.37,0,0,1-3.33-8.354h50.711a27.371,27.371,0,0,1-3.33,8.354,26.772,26.772,0,0,1-5.693,6.655,25.657,25.657,0,0,1-7.52,4.4A25.064,25.064,0,0,1-1717,65Zm-130.5-4a26.672,26.672,0,0,1-15.314-4.779,26.4,26.4,0,0,1-5.7-5.379A25.785,25.785,0,0,1-1872.369,44h49.739a25.782,25.782,0,0,1-3.856,6.843,26.4,26.4,0,0,1-5.7,5.379A26.674,26.674,0,0,1-1847.5,61Z" transform="translate(2211 52)" fill="#0093be"/>
    </g>
  </g>
</svg>
