<svg xmlns="http://www.w3.org/2000/svg" xmlns:xlink="http://www.w3.org/1999/xlink" width="600" height="400" viewBox="0 0 600 400">
  <defs>
    <clipPath id="clip-path">
      <rect id="Rectangle_81" data-name="Rectangle 81" width="500" height="250" transform="translate(0 0)" fill="#199ec5"/>
    </clipPath>
    <linearGradient id="linear-gradient" x1="0.5" x2="0.5" y2="1" gradientUnits="objectBoundingBox">
      <stop offset="0" stop-color="#0093be" stop-opacity="0"/>
      <stop offset="1" stop-color="#0093be"/>
    </linearGradient>
    <clipPath id="clip-Tekst_slider">
      <rect width="600" height="400"/>
    </clipPath>
  </defs>
  <g id="Tekst_slider" data-name="Tekst/slider" clip-path="url(#clip-Tekst_slider)">
    <rect width="600" height="400" fill="#fff"/>
    <g id="Group_1033" data-name="Group 1033" transform="translate(50.127 -1325)">
      <rect id="Rectangle_155" data-name="Rectangle 155" width="500" height="250" rx="16" transform="translate(-0.128 1400)" fill="#0093be"/>
    </g>
    <g id="Group_1038" data-name="Group 1038">
      <path id="HR_Zeeland_Bedrijfsfilm_0-49_screenshot" data-name="HR Zeeland Bedrijfsfilm 0-49 screenshot" d="M16,0H133.8a16,16,0,0,1,16,16V130.864a0,0,0,0,1,0,0H0a0,0,0,0,1,0,0V16A16,16,0,0,1,16,0Z" transform="translate(340.912 111.238)" fill="#66bed8"/>
      <path id="HR_Zeeland_Bedrijfsfilm_0-40_screenshot" data-name="HR Zeeland Bedrijfsfilm 0-40 screenshot" d="M16,0H154a16,16,0,0,1,16,16V138a0,0,0,0,1,0,0H0a0,0,0,0,1,0,0V16A16,16,0,0,1,16,0Z" transform="translate(331 124.762)" fill="#33a9cb"/>
      <path id="HR-Zeeland-Bedrijfsfilm-0-18-screenshot-5" d="M16,0H172a16,16,0,0,1,16,16V150a0,0,0,0,1,0,0H0a0,0,0,0,1,0,0V16A16,16,0,0,1,16,0Z" transform="translate(322 138.762)" fill="#47c8ed"/>
      <rect id="Rectangle_2439" data-name="Rectangle 2439" width="226" height="110" transform="translate(303 179)" fill="url(#linear-gradient)"/>
      <g id="Group_1054" data-name="Group 1054" transform="translate(0 -5.388)">
        <g id="Group_1053" data-name="Group 1053" transform="translate(0 -7)">
          <g id="Group_1032" data-name="Group 1032" transform="translate(88 165.388)">
            <rect id="Rectangle_379" data-name="Rectangle 379" width="96.739" height="11" rx="5.5" transform="translate(0)" fill="#fff"/>
          </g>
          <g id="Group_1035" data-name="Group 1035" transform="translate(129.185 182.762)">
            <rect id="Rectangle_379-2" data-name="Rectangle 379" width="55.554" height="11" rx="5.5" transform="translate(0)" fill="#fff"/>
          </g>
          <g id="Group_1034" data-name="Group 1034" transform="translate(192 165.388)">
            <rect id="Rectangle_379-3" data-name="Rectangle 379" width="33.486" height="11" rx="5.5" transform="translate(0)" fill="#fff"/>
          </g>
          <g id="Group_1036" data-name="Group 1036" transform="translate(88 182.762)">
            <rect id="Rectangle_379-4" data-name="Rectangle 379" width="33.486" height="11" rx="5.5" transform="translate(0)" fill="#fff"/>
          </g>
        </g>
        <g id="Group_1037" data-name="Group 1037" transform="translate(0 8.702)">
          <g id="Group_1052" data-name="Group 1052">
            <rect id="Rectangle_2436" data-name="Rectangle 2436" width="162.663" height="5" rx="2.5" transform="translate(88 193.762)" fill="#fff" opacity="0.76"/>
            <rect id="Rectangle_2437" data-name="Rectangle 2437" width="140" height="5" rx="2.5" transform="translate(88 205.211)" fill="#fff" opacity="0.76"/>
            <rect id="Rectangle_2440" data-name="Rectangle 2440" width="115.261" height="5" rx="2.5" transform="translate(88 228.11)" fill="#fff" opacity="0.76"/>
            <rect id="Rectangle_2441" data-name="Rectangle 2441" width="70" height="5" rx="2.5" transform="translate(88 239.56)" fill="#fff" opacity="0.76"/>
            <rect id="Rectangle_2438" data-name="Rectangle 2438" width="130" height="5" rx="2.5" transform="translate(88 216.661)" fill="#fff" opacity="0.76"/>
          </g>
        </g>
      </g>
      <rect id="Rectangle_2460" data-name="Rectangle 2460" width="226" height="110" transform="translate(303 179)" fill="url(#linear-gradient)"/>
      <g id="Group_38" data-name="Group 38" transform="translate(374.959 253.585)">
        <rect id="Rectangle_42" data-name="Rectangle 42" width="82" height="16" rx="8" transform="translate(0.041 -0.323)" fill="#fff"/>
      </g>
    </g>
  </g>
</svg>
