<svg width="31" height="32" viewBox="0 0 31 32" fill="none" xmlns="http://www.w3.org/2000/svg">
<g clip-path="url(#clip0_2048_102)">
<g style="mix-blend-mode:soft-light">
<mask id="mask0_2048_102" style="mask-type:luminance" maskUnits="userSpaceOnUse" x="7" y="7" width="24" height="25">
<path d="M30.4521 7.90525H7.65527V32H30.4521V7.90525Z" fill="white"/>
</mask>
<g mask="url(#mask0_2048_102)">
<path d="M30.1712 10.9265C30.1801 10.9122 30.1891 10.8979 30.198 10.8836C30.2123 10.8585 30.2266 10.8353 30.2391 10.8103C30.3303 10.6387 30.3714 10.4867 30.3857 10.4063C30.5555 9.70726 30.3946 8.83128 29.9263 8.43262C29.7225 8.22525 29.4346 8.15732 29.4346 8.15732L28.3942 7.93207L28.4014 7.941C27.9276 7.85341 27.3859 7.93207 27.0355 8.2038L16.7365 16.4058C16.7044 16.4308 16.6722 16.4559 16.6418 16.4827C16.2878 16.7955 15.9607 17.137 15.6675 17.507C15.6425 17.5392 15.6174 17.5714 15.5942 17.6054L7.9285 28.5837C7.55487 29.1182 7.5656 29.8226 7.95353 30.316L8.79375 31.3815C9.32828 32.0608 10.0845 32.3218 10.9783 31.4333L18.6923 22.6574C18.7173 23.4387 19.0266 24.2002 19.6273 24.7705C20.8715 25.954 22.8809 25.8628 24.1126 24.5667C25.3462 23.2706 25.3372 21.2594 24.093 20.076C23.4941 19.5057 22.7164 19.234 21.9352 19.2483L30.0317 11.107C30.0836 11.0534 30.1283 10.9908 30.1694 10.9247" fill="#616BB5"/>
</g>
</g>
<g style="mix-blend-mode:soft-light">
<mask id="mask1_2048_102" style="mask-type:luminance" maskUnits="userSpaceOnUse" x="1" y="0" width="30" height="13">
<path d="M30.4516 0H1.28516V12.1868H30.4516V0Z" fill="white"/>
</mask>
<g mask="url(#mask1_2048_102)">
<path d="M29.4351 8.15731L18.2995 5.74569C18.9484 5.33988 19.4525 4.69809 19.6617 3.89719C20.0979 2.23641 19.1093 0.536301 17.4539 0.101887C15.7985 -0.332526 14.1037 0.66144 13.6675 2.32401C13.4566 3.1249 13.5799 3.93116 13.9464 4.60334L3.26304 1.32289C2.56584 1.14055 1.86863 1.5106 1.59869 2.14166V2.13273C1.15891 3.01943 1.31265 3.93652 1.31265 3.93652L1.31802 3.92937C1.38774 4.48178 1.7274 5.12535 2.16539 5.3506L13.9017 10.5135C13.9375 10.5296 13.9732 10.5439 14.0108 10.5582C14.4362 10.7119 14.8724 10.8281 15.3194 10.9014C15.3587 10.9086 15.3962 10.9122 15.4356 10.9157L28.1944 12.1832C28.8166 12.2458 29.5763 11.5897 29.9106 11.234C29.9106 11.234 30.2753 10.9461 30.3898 10.4009C30.6061 9.482 30.2682 8.37719 29.4369 8.15909" fill="#6472C7"/>
</g>
</g>
<g style="mix-blend-mode:soft-light">
<mask id="mask2_2048_102" style="mask-type:luminance" maskUnits="userSpaceOnUse" x="0" y="1" width="13" height="31">
<path d="M12.2726 1.27642H0V31.9964H12.2726V1.27642Z" fill="white"/>
</mask>
<g mask="url(#mask2_2048_102)">
<path d="M10.9211 16.4183C10.9176 16.379 10.9122 16.3397 10.9068 16.3021C10.8335 15.8552 10.7191 15.4154 10.5672 14.9882C10.5547 14.9506 10.5386 14.9149 10.5243 14.8791L5.38818 3.07843C5.1379 2.50279 5.18796 1.98078 4.18326 1.60536L3.33232 1.34435C3.33232 1.34435 2.84248 1.18167 2.42058 1.36223C2.42058 1.36223 2.2293 1.40513 2.00405 1.59999C1.80919 1.76089 1.65902 1.98435 1.54818 2.23821C1.53745 2.26145 1.52673 2.28469 1.516 2.30793C1.50528 2.33474 1.49634 2.36156 1.48561 2.38837C1.47131 2.4277 1.45701 2.46703 1.44271 2.50994C1.43198 2.54212 1.42304 2.57608 1.4141 2.61005C1.40695 2.63687 1.39801 2.66368 1.39086 2.69229C1.39086 2.69229 1.36226 2.78703 1.33723 2.94793C1.26215 3.39307 1.27466 3.84178 1.3569 4.16L4.61053 14.8952C3.93835 14.5251 3.13209 14.3982 2.3312 14.6056C0.668628 15.0364 -0.330702 16.733 0.100136 18.3955C0.530974 20.0581 2.22751 21.0574 3.89008 20.6266C4.69097 20.4192 5.33455 19.9169 5.74215 19.2679L7.70684 29.8279C8.20919 30.6396 9.27824 32.3075 10.1471 31.9446L10.5439 31.7837C11.0981 31.2956 11.8025 30.5323 12.2727 29.9602L10.9194 16.4183H10.9211Z" fill="#7E91D6"/>
</g>
</g>
</g>
<defs>
<clipPath id="clip0_2048_102">
<rect width="30.4518" height="32" fill="white"/>
</clipPath>
</defs>
</svg>
