<svg xmlns="http://www.w3.org/2000/svg" width="164" height="37.51" viewBox="0 0 164 37.51">
  <g id="_2019030-HRZeeland-Logo-2019" data-name="2019030-HRZeeland-Logo-2019" transform="translate(-0.053 -0.053)">
    <g id="Group_1" data-name="Group 1" transform="translate(77.21 5.776)">
      <path id="Path_1" data-name="Path 1" d="M247.4,36.215l9.015-14.131H247.4V20.4h11.292v1.528L249.677,36.09h9.015v1.684H247.4Z" transform="translate(-247.4 -19.776)" fill="#6b6b6a"/>
      <path id="Path_2" data-name="Path 2" d="M294.721,47.49a3.547,3.547,0,0,1-1.622-1.965,11.7,11.7,0,0,1-.5-3.9,11.581,11.581,0,0,1,.5-3.9,3.285,3.285,0,0,1,1.653-1.965A7.3,7.3,0,0,1,297.9,35.2a8.188,8.188,0,0,1,2.745.374,2.723,2.723,0,0,1,1.529,1.279,5.057,5.057,0,0,1,.5,2.5,2.712,2.712,0,0,1-.936,2.308,4.326,4.326,0,0,1-2.651.717h-4.617a7.556,7.556,0,0,0,.343,2.527,2.339,2.339,0,0,0,1.123,1.31,5.4,5.4,0,0,0,2.371.406h4.055V47.74c-.842.125-1.591.187-2.277.25q-.983.094-2.246.094A6.691,6.691,0,0,1,294.721,47.49Zm4.211-6.3a2.491,2.491,0,0,0,1.591-.406,1.671,1.671,0,0,0,.5-1.4,2.775,2.775,0,0,0-.686-2.184,3.715,3.715,0,0,0-2.4-.593,4.207,4.207,0,0,0-2.09.406,2.154,2.154,0,0,0-1.029,1.373,9.4,9.4,0,0,0-.312,2.807Z" transform="translate(-278.5 -29.959)" fill="#6b6b6a"/>
      <path id="Path_3" data-name="Path 3" d="M337.521,47.49a3.547,3.547,0,0,1-1.622-1.965,11.7,11.7,0,0,1-.5-3.9,11.581,11.581,0,0,1,.5-3.9,3.285,3.285,0,0,1,1.653-1.965A7.3,7.3,0,0,1,340.7,35.2a8.188,8.188,0,0,1,2.745.374,2.723,2.723,0,0,1,1.528,1.279,5.056,5.056,0,0,1,.5,2.5,2.712,2.712,0,0,1-.936,2.308,4.327,4.327,0,0,1-2.651.717h-4.617a7.555,7.555,0,0,0,.343,2.527,2.338,2.338,0,0,0,1.123,1.31,5.4,5.4,0,0,0,2.371.406h4.055V47.74c-.842.125-1.591.187-2.277.25q-.982.094-2.246.094A6.606,6.606,0,0,1,337.521,47.49Zm4.211-6.3a2.491,2.491,0,0,0,1.591-.406,1.671,1.671,0,0,0,.5-1.4,2.774,2.774,0,0,0-.686-2.184,3.715,3.715,0,0,0-2.4-.593,4.207,4.207,0,0,0-2.09.406,2.153,2.153,0,0,0-1.029,1.373,9.394,9.394,0,0,0-.312,2.807Z" transform="translate(-307.95 -29.959)" fill="#6b6b6a"/>
      <path id="Path_4" data-name="Path 4" d="M380.411,35.494a4.838,4.838,0,0,1-.811-3.151V18.4h1.872V32.125a3.766,3.766,0,0,0,.437,2.121,1.926,1.926,0,0,0,1.341.686l1.279.156V36.43h-1.591A3.293,3.293,0,0,1,380.411,35.494Z" transform="translate(-338.362 -18.4)" fill="#6b6b6a"/>
      <path id="Path_5" data-name="Path 5" d="M402.273,47.1a3.033,3.033,0,0,1-.873-2.308v-.9a3.126,3.126,0,0,1,1-2.433,4.283,4.283,0,0,1,2.932-.9H409.6v-1.56a2.339,2.339,0,0,0-.686-1.872,3.967,3.967,0,0,0-2.558-.624h-3.9V35.374A27.3,27.3,0,0,1,407.046,35a5.053,5.053,0,0,1,3.369.936,3.737,3.737,0,0,1,1.061,2.963v8.89h-1.435l-.343-1.435a5.338,5.338,0,0,1-1.029.53,11.865,11.865,0,0,1-1.965.717,7.386,7.386,0,0,1-2.09.312A3.116,3.116,0,0,1,402.273,47.1Zm4.679-.78a15.057,15.057,0,0,0,1.653-.5c.5-.187.811-.281.967-.343V41.519l-3.837.156a2.879,2.879,0,0,0-1.9.624,2.141,2.141,0,0,0-.593,1.591v.561a1.976,1.976,0,0,0,.624,1.591,2.312,2.312,0,0,0,1.529.5A5.043,5.043,0,0,0,406.953,46.323Z" transform="translate(-353.362 -29.822)" fill="#6b6b6a"/>
      <path id="Path_6" data-name="Path 6" d="M446.731,35.218H448.2l.406,1.4a10.4,10.4,0,0,1,2.184-1.154,6.575,6.575,0,0,1,2.4-.468,3.532,3.532,0,0,1,2.932,1.217,4.662,4.662,0,0,1,.967,3.057v8.547h-1.872v-8.36a2.879,2.879,0,0,0-.686-2,2.51,2.51,0,0,0-1.934-.78,6.778,6.778,0,0,0-2.028.281,10.1,10.1,0,0,0-2,.936v9.888H446.7V35.218Z" transform="translate(-384.531 -29.822)" fill="#6b6b6a"/>
      <path id="Path_7" data-name="Path 7" d="M492.892,35a8.471,8.471,0,0,1-1.092-4.8,12.756,12.756,0,0,1,.468-3.806,3.7,3.7,0,0,1,1.5-2.09,5.151,5.151,0,0,1,2.776-.655,11.439,11.439,0,0,1,3.868.749V18.4h1.872v18h-1.5l-.343-1.279a5.947,5.947,0,0,1-1.809.967,6.591,6.591,0,0,1-2.277.468A4.007,4.007,0,0,1,492.892,35Zm5.771-.281a10.429,10.429,0,0,0,1.747-.78V25.7c-.749-.218-1.341-.374-1.809-.468a8,8,0,0,0-1.56-.156,3.52,3.52,0,0,0-1.965.468,2.557,2.557,0,0,0-1.061,1.56,10.739,10.739,0,0,0-.343,3.026,7.514,7.514,0,0,0,.717,3.774,2.73,2.73,0,0,0,2.464,1.123A6.447,6.447,0,0,0,498.663,34.714Z" transform="translate(-415.563 -18.4)" fill="#6b6b6a"/>
    </g>
    <g id="Group_2" data-name="Group 2" transform="translate(39.871 5.027)">
      <path id="Path_8" data-name="Path 8" d="M127.7,16h3.712v7.7H138.4V16h3.712V34.5H138.4V27.011h-6.987V34.5H127.7V16Z" transform="translate(-127.7 -16)"/>
      <path id="Path_9" data-name="Path 9" d="M184,16h7.642a5.481,5.481,0,0,1,3.868,1.31c.936.873,1.4,2.4,1.4,4.617a6.05,6.05,0,0,1-.78,3.462,5.126,5.126,0,0,1-2.152,1.716l3.463,7.424H193.67l-2.963-6.863c-.811,0-1.809-.031-2.995-.062V34.5H184Zm7.019,8.672a2.162,2.162,0,0,0,1.653-.624,3.183,3.183,0,0,0,.562-2.152,2.814,2.814,0,0,0-.562-2.028,2.258,2.258,0,0,0-1.653-.561h-3.307v5.365Z" transform="translate(-166.438 -16)"/>
    </g>
    <path id="Path_10" data-name="Path 10" d="M1.534,7.857,5.09,19.586a3.4,3.4,0,1,0-.78,6.27,3.327,3.327,0,0,0,2.028-1.5L8.615,36.087c.25.9,1.653,2.5,2.527,2.121l1.185-1a5.147,5.147,0,0,0,1.061-1.622l-1.435-14.38a.188.188,0,0,0-.031-.125,4.852,4.852,0,0,0-.343-1.4.237.237,0,0,0-.062-.125L5.9,6.64c-.281-.624-.218-1.123-1.31-1.528L2.75,4.8C1.814,4.894,1.284,6.952,1.534,7.857Z" transform="translate(0 -3.266)" fill="#00afcb"/>
    <g id="Group_3" data-name="Group 3" transform="translate(39.216 27.643)">
      <path id="Path_11" data-name="Path 11" d="M125.6,95.662h.312l.094.561a4.663,4.663,0,0,1,.873-.406,3.409,3.409,0,0,1,1-.218,1.6,1.6,0,0,1,1.092.374,2.187,2.187,0,0,1,.624,1,4.434,4.434,0,0,1,.187,1.31c0,1.809-.624,2.714-1.9,2.714a3.267,3.267,0,0,1-.936-.156,3.218,3.218,0,0,1-.936-.437v2.87H125.6Zm3.806,2.62a3.2,3.2,0,0,0-.218-1.31,2.187,2.187,0,0,0-.561-.78,1.17,1.17,0,0,0-.78-.25,2.761,2.761,0,0,0-.9.125,6.987,6.987,0,0,0-.9.374v3.65a3.845,3.845,0,0,0,1.809.53C128.875,100.653,129.406,99.874,129.406,98.283Z" transform="translate(-125.6 -93.385)"/>
      <path id="Path_12" data-name="Path 12" d="M146.642,100.747a1.313,1.313,0,0,1-.655-.842,5.637,5.637,0,0,1-.187-1.622,4.51,4.51,0,0,1,.218-1.622,1.446,1.446,0,0,1,.655-.811,2.814,2.814,0,0,1,1.279-.25,2.3,2.3,0,0,1,1.466.374,1.591,1.591,0,0,1,.468,1.31c0,.78-.468,1.185-1.4,1.185h-2.277a4.434,4.434,0,0,0,.156,1.279,1.034,1.034,0,0,0,.53.655,2.493,2.493,0,0,0,1.092.218h1.778v.25c-.655.062-1.248.094-1.872.094A2.09,2.09,0,0,1,146.642,100.747Zm1.809-2.558a1.242,1.242,0,0,0,.78-.187.872.872,0,0,0,.25-.686,2.135,2.135,0,0,0-.156-.842.876.876,0,0,0-.5-.437,2.427,2.427,0,0,0-.9-.125,2.392,2.392,0,0,0-1.061.187,1.116,1.116,0,0,0-.53.686,5.11,5.11,0,0,0-.156,1.4Z" transform="translate(-139.499 -93.385)"/>
      <path id="Path_13" data-name="Path 13" d="M166.2,95.662h.312l.125,1a3.123,3.123,0,0,1,.936-.78,2.074,2.074,0,0,1,1.061-.281,2.474,2.474,0,0,1,.53.062v.406a2.746,2.746,0,0,0-.53-.062,2.048,2.048,0,0,0-1,.218,5.061,5.061,0,0,0-.967.717v3.993h-.406V95.662Z" transform="translate(-153.535 -93.385)"/>
      <path id="Path_14" data-name="Path 14" d="M181.6,100.828c-.468-.031-.78-.031-.9-.062v-.25h2.059a4.07,4.07,0,0,0,.717-.062.718.718,0,0,0,.437-.281,1.147,1.147,0,0,0,.156-.624v-.281a.871.871,0,0,0-.281-.686,1.387,1.387,0,0,0-.873-.25h-.717a2.079,2.079,0,0,1-1.185-.281,1.133,1.133,0,0,1-.406-.967V96.8a1.281,1.281,0,0,1,.406-1.061,2.085,2.085,0,0,1,1.279-.343c.281,0,.593,0,1,.031s.686.031.9.062v.25h-1.934a1.583,1.583,0,0,0-.967.218.936.936,0,0,0-.312.811v.25a.757.757,0,0,0,.312.717,1.753,1.753,0,0,0,.936.187h.717a1.633,1.633,0,0,1,1.092.343,1.1,1.1,0,0,1,.406.936v.312a1.1,1.1,0,0,1-.468,1.029,2.555,2.555,0,0,1-1.31.281A5.836,5.836,0,0,1,181.6,100.828Z" transform="translate(-163.443 -93.248)"/>
      <path id="Path_15" data-name="Path 15" d="M200.367,100.778a1.434,1.434,0,0,1-.717-.811,4.8,4.8,0,0,1-.25-1.684,4.555,4.555,0,0,1,.25-1.684,1.369,1.369,0,0,1,.717-.78,2.8,2.8,0,0,1,1.248-.218,2.888,2.888,0,0,1,1.248.218,1.434,1.434,0,0,1,.717.811,4.674,4.674,0,0,1,.25,1.684,4.555,4.555,0,0,1-.25,1.684,1.434,1.434,0,0,1-.717.811,2.8,2.8,0,0,1-1.248.218A3.258,3.258,0,0,1,200.367,100.778Zm2.246-.281a1.314,1.314,0,0,0,.593-.686,4.54,4.54,0,0,0,.218-1.528,3.692,3.692,0,0,0-.218-1.5,1.237,1.237,0,0,0-.593-.655,3.475,3.475,0,0,0-2.059,0,1.087,1.087,0,0,0-.561.655,4.468,4.468,0,0,0-.218,1.5,3.964,3.964,0,0,0,.218,1.528,1.273,1.273,0,0,0,.561.686,2.381,2.381,0,0,0,1.029.156A2.974,2.974,0,0,0,202.613,100.5Z" transform="translate(-176.379 -93.385)"/>
      <path id="Path_16" data-name="Path 16" d="M221.267,100.778a1.433,1.433,0,0,1-.717-.811,4.794,4.794,0,0,1-.25-1.684,4.554,4.554,0,0,1,.25-1.684,1.368,1.368,0,0,1,.717-.78,2.8,2.8,0,0,1,1.248-.218,2.888,2.888,0,0,1,1.248.218,1.434,1.434,0,0,1,.717.811,4.673,4.673,0,0,1,.25,1.684,4.555,4.555,0,0,1-.25,1.684,1.434,1.434,0,0,1-.717.811,2.8,2.8,0,0,1-1.248.218A3.258,3.258,0,0,1,221.267,100.778Zm2.246-.281a1.314,1.314,0,0,0,.593-.686,4.54,4.54,0,0,0,.218-1.528,3.691,3.691,0,0,0-.218-1.5,1.237,1.237,0,0,0-.593-.655,3.475,3.475,0,0,0-2.059,0,1.087,1.087,0,0,0-.562.655,4.469,4.469,0,0,0-.218,1.5,3.964,3.964,0,0,0,.218,1.528,1.154,1.154,0,0,0,.562.686,2.381,2.381,0,0,0,1.029.156A2.974,2.974,0,0,0,223.513,100.5Z" transform="translate(-190.76 -93.385)"/>
      <path id="Path_17" data-name="Path 17" d="M241.8,95.594h.281l.125.593a4.268,4.268,0,0,1,1-.5A3.213,3.213,0,0,1,244.3,95.5a1.6,1.6,0,0,1,.873.25,1.54,1.54,0,0,1,.561.624,1.858,1.858,0,0,1,.187.842v3.65h-.406V97.247a1.548,1.548,0,0,0-.343-1,1.3,1.3,0,0,0-.936-.406,3.236,3.236,0,0,0-1,.125,5.494,5.494,0,0,0-1,.468v4.4h-.406V95.594Z" transform="translate(-205.553 -93.316)"/>
      <path id="Path_18" data-name="Path 18" d="M263.212,95.706a2.019,2.019,0,0,1-.312-1.31V88.5h.405v5.864a2.748,2.748,0,0,0,.094.811.792.792,0,0,0,.281.406,1.644,1.644,0,0,0,.468.156l.593.062v.281h-.624A1.413,1.413,0,0,1,263.212,95.706Z" transform="translate(-220.071 -88.5)"/>
      <path id="Path_19" data-name="Path 19" d="M274.3,90.38v-.655c0-.094.031-.125.125-.125h.25c.094,0,.125.031.125.125v.655c0,.094-.031.125-.125.125h-.25A.134.134,0,0,1,274.3,90.38Zm.031,1.154h.406v5.272h-.406Z" transform="translate(-227.915 -89.257)"/>
      <path id="Path_20" data-name="Path 20" d="M283.6,90.38v-.655c0-.094.031-.125.125-.125h.25c.094,0,.125.031.125.125v.655c0,.094-.031.125-.125.125h-.25A.134.134,0,0,1,283.6,90.38Zm.062,1.154h.406v5.053c0,.842-.031,1.684-.094,2.589h-.312Z" transform="translate(-234.314 -89.257)"/>
      <path id="Path_21" data-name="Path 21" d="M293.1,88.5h.406v4.523h.842l1.872-2.246h.468L294.66,93.21l2.121,2.839h-.468l-2-2.651h-.78v2.651h-.405V88.5Z" transform="translate(-240.851 -88.5)"/>
      <path id="Path_22" data-name="Path 22" d="M322.1,90.38v-.655c0-.094.031-.125.125-.125h.25c.094,0,.125.031.125.125v.655c0,.094-.031.125-.125.125h-.25A.114.114,0,0,1,322.1,90.38Zm.031,1.154h.406v5.272h-.406Z" transform="translate(-260.804 -89.257)"/>
      <path id="Path_23" data-name="Path 23" d="M331.5,95.594h.281l.125.593a4.269,4.269,0,0,1,1-.5A3.213,3.213,0,0,1,334,95.5a1.6,1.6,0,0,1,.873.25,1.54,1.54,0,0,1,.561.624,1.857,1.857,0,0,1,.187.842v3.65h-.406V97.247a1.548,1.548,0,0,0-.343-1,1.3,1.3,0,0,0-.936-.406,3.237,3.237,0,0,0-1,.125,5.5,5.5,0,0,0-1,.468v4.4h-.406V95.594Z" transform="translate(-267.272 -93.316)"/>
      <path id="Path_24" data-name="Path 24" d="M364,95.662h.312l.094.561a4.66,4.66,0,0,1,.873-.406,3.41,3.41,0,0,1,1-.218,1.6,1.6,0,0,1,1.092.374,2.186,2.186,0,0,1,.624,1,4.434,4.434,0,0,1,.187,1.31c0,1.809-.624,2.714-1.9,2.714a3.268,3.268,0,0,1-.936-.156,3.644,3.644,0,0,1-.936-.437v2.87H364Zm3.774,2.62a3.2,3.2,0,0,0-.218-1.31,2.187,2.187,0,0,0-.561-.78,1.443,1.443,0,0,0-.78-.25,2.76,2.76,0,0,0-.9.125,6.981,6.981,0,0,0-.9.374v3.65a3.845,3.845,0,0,0,1.809.53C367.244,100.653,367.774,99.874,367.774,98.283Z" transform="translate(-289.634 -93.385)"/>
      <path id="Path_25" data-name="Path 25" d="M384.942,100.747a1.313,1.313,0,0,1-.655-.842,5.639,5.639,0,0,1-.187-1.622,4.511,4.511,0,0,1,.218-1.622,1.447,1.447,0,0,1,.655-.811,2.814,2.814,0,0,1,1.279-.25,2.3,2.3,0,0,1,1.466.374,1.591,1.591,0,0,1,.468,1.31c0,.78-.468,1.185-1.4,1.185h-2.277a4.435,4.435,0,0,0,.156,1.279,1.034,1.034,0,0,0,.53.655,2.493,2.493,0,0,0,1.092.218h1.778v.25c-.655.062-1.248.094-1.872.094A2.141,2.141,0,0,1,384.942,100.747Zm1.809-2.558a1.242,1.242,0,0,0,.78-.187.872.872,0,0,0,.25-.686,2.137,2.137,0,0,0-.156-.842.876.876,0,0,0-.5-.437,2.427,2.427,0,0,0-.9-.125,2.391,2.391,0,0,0-1.061.187,1.116,1.116,0,0,0-.53.686,4.235,4.235,0,0,0-.156,1.4Z" transform="translate(-303.464 -93.385)"/>
      <path id="Path_26" data-name="Path 26" d="M404.5,95.662h.312l.094,1a3.122,3.122,0,0,1,.936-.78A2.074,2.074,0,0,1,406.9,95.6a2.474,2.474,0,0,1,.53.062v.406a2.8,2.8,0,0,0-.561-.062,2.048,2.048,0,0,0-1,.218,5.059,5.059,0,0,0-.967.717v3.993H404.5Z" transform="translate(-317.501 -93.385)"/>
      <path id="Path_27" data-name="Path 27" d="M419.9,100.828c-.468-.031-.78-.031-.9-.062v-.25h2.059a4.069,4.069,0,0,0,.717-.062.718.718,0,0,0,.437-.281.93.93,0,0,0,.156-.624v-.281a.871.871,0,0,0-.281-.686,1.387,1.387,0,0,0-.873-.25h-.717a2.079,2.079,0,0,1-1.185-.281,1.133,1.133,0,0,1-.405-.967V96.8a1.281,1.281,0,0,1,.405-1.061,2.085,2.085,0,0,1,1.279-.343c.281,0,.593,0,1,.031s.686.031.9.062v.25h-1.934a1.583,1.583,0,0,0-.967.218.935.935,0,0,0-.312.811v.25a.757.757,0,0,0,.312.717,1.753,1.753,0,0,0,.936.187h.717a1.633,1.633,0,0,1,1.092.343,1.1,1.1,0,0,1,.406.936v.312a1.1,1.1,0,0,1-.468,1.029,2.555,2.555,0,0,1-1.31.281A5.837,5.837,0,0,1,419.9,100.828Z" transform="translate(-327.409 -93.248)"/>
      <path id="Path_28" data-name="Path 28" d="M438.667,100.778a1.434,1.434,0,0,1-.717-.811,4.8,4.8,0,0,1-.25-1.684,4.555,4.555,0,0,1,.25-1.684,1.369,1.369,0,0,1,.717-.78,2.8,2.8,0,0,1,1.248-.218,2.888,2.888,0,0,1,1.248.218,1.434,1.434,0,0,1,.717.811,4.673,4.673,0,0,1,.25,1.684,4.554,4.554,0,0,1-.25,1.684,1.434,1.434,0,0,1-.717.811,2.8,2.8,0,0,1-1.248.218A3.259,3.259,0,0,1,438.667,100.778Zm2.246-.281a1.314,1.314,0,0,0,.593-.686,4.539,4.539,0,0,0,.218-1.528,3.691,3.691,0,0,0-.218-1.5,1.237,1.237,0,0,0-.593-.655,3.475,3.475,0,0,0-2.059,0,1.087,1.087,0,0,0-.562.655,4.335,4.335,0,0,0-.218,1.5,3.965,3.965,0,0,0,.218,1.528,1.273,1.273,0,0,0,.562.686,2.381,2.381,0,0,0,1.029.156A2.974,2.974,0,0,0,440.913,100.5Z" transform="translate(-340.344 -93.385)"/>
      <path id="Path_29" data-name="Path 29" d="M459.3,95.594h.281l.125.593a4.268,4.268,0,0,1,1-.5A3.213,3.213,0,0,1,461.8,95.5a1.6,1.6,0,0,1,.873.25,1.54,1.54,0,0,1,.561.624,1.857,1.857,0,0,1,.187.842v3.65h-.405V97.247a1.548,1.548,0,0,0-.343-1,1.3,1.3,0,0,0-.936-.406,3.236,3.236,0,0,0-1,.125,5.493,5.493,0,0,0-1,.468v4.4h-.405V95.594Z" transform="translate(-355.207 -93.316)"/>
      <path id="Path_30" data-name="Path 30" d="M480.542,100.747a1.313,1.313,0,0,1-.655-.842,5.637,5.637,0,0,1-.187-1.622,4.508,4.508,0,0,1,.218-1.622,1.446,1.446,0,0,1,.655-.811,2.814,2.814,0,0,1,1.279-.25,2.3,2.3,0,0,1,1.466.374,1.591,1.591,0,0,1,.468,1.31c0,.78-.468,1.185-1.4,1.185h-2.277a4.434,4.434,0,0,0,.156,1.279,1.034,1.034,0,0,0,.53.655,2.493,2.493,0,0,0,1.092.218h1.778v.25c-.655.062-1.248.094-1.872.094A2.141,2.141,0,0,1,480.542,100.747Zm1.809-2.558a1.242,1.242,0,0,0,.78-.187.872.872,0,0,0,.25-.686,2.134,2.134,0,0,0-.156-.842.876.876,0,0,0-.5-.437,2.427,2.427,0,0,0-.9-.125,2.392,2.392,0,0,0-1.061.187,1.116,1.116,0,0,0-.53.686,5.111,5.111,0,0,0-.156,1.4Z" transform="translate(-369.243 -93.385)"/>
      <path id="Path_31" data-name="Path 31" d="M500.342,100.747a1.314,1.314,0,0,1-.655-.842,5.641,5.641,0,0,1-.187-1.622,4.512,4.512,0,0,1,.218-1.622,1.447,1.447,0,0,1,.655-.811,2.814,2.814,0,0,1,1.279-.25,2.3,2.3,0,0,1,1.466.374,1.591,1.591,0,0,1,.468,1.31c0,.78-.468,1.185-1.4,1.185h-2.277a4.434,4.434,0,0,0,.156,1.279,1.034,1.034,0,0,0,.53.655,2.493,2.493,0,0,0,1.092.218h1.778v.25c-.655.062-1.248.094-1.872.094A2.141,2.141,0,0,1,500.342,100.747Zm1.809-2.558a1.242,1.242,0,0,0,.78-.187.872.872,0,0,0,.25-.686,2.137,2.137,0,0,0-.156-.842.876.876,0,0,0-.5-.437,2.426,2.426,0,0,0-.9-.125,2.392,2.392,0,0,0-1.061.187,1.116,1.116,0,0,0-.53.686,5.113,5.113,0,0,0-.156,1.4Z" transform="translate(-382.867 -93.385)"/>
      <path id="Path_32" data-name="Path 32" d="M520.212,95.706a2.02,2.02,0,0,1-.312-1.31V88.5h.406v5.864a2.745,2.745,0,0,0,.094.811.792.792,0,0,0,.281.406,1.645,1.645,0,0,0,.468.156l.593.062v.281h-.624A1.414,1.414,0,0,1,520.212,95.706Z" transform="translate(-396.903 -88.5)"/>
    </g>
    <path id="Path_33" data-name="Path 33" d="M51.381,31.114l-8.859,8.921a3.369,3.369,0,0,1,2.4,5.8,3.462,3.462,0,0,1-4.9.218A3.355,3.355,0,0,1,39,43.748l-8.422,9.608a1.433,1.433,0,0,1-2.4-.062l-.9-1.154a1.589,1.589,0,0,1-.031-1.9l8.391-12.01.094-.094a9.034,9.034,0,0,1,1.061-1.123l.094-.094,11.261-8.984a2.1,2.1,0,0,1,2.215-.062l.9.281A2.347,2.347,0,0,1,51.381,31.114Z" transform="translate(-18.498 -18.943)" fill="#00728d"/>
    <path id="Path_34" data-name="Path 34" d="M35.076,8.927,23.129,6.306a3.448,3.448,0,0,0,1.5-2.028,3.338,3.338,0,0,0-2.4-4.118,3.428,3.428,0,0,0-4.149,2.433,3.441,3.441,0,0,0,.312,2.5L6.69,1.471A1.587,1.587,0,0,0,4.756,2.813L4.569,4.279a1.55,1.55,0,0,0,.9,1.622l12.821,5.646c.031.031.094.031.125.062a10.754,10.754,0,0,0,1.435.374.188.188,0,0,1,.125.031l13.944,1.373a1.557,1.557,0,0,0,1.591-.967l.561-1.373A1.516,1.516,0,0,0,35.076,8.927Z" transform="translate(-3.097)" fill="#0093be"/>
  </g>
</svg>
