<?xml version="1.0" encoding="UTF-8"?>
<svg xmlns="http://www.w3.org/2000/svg" width="31" height="32" xmlns:xlink="http://www.w3.org/1999/xlink" version="1.1" viewBox="0 0 31 32">
  <defs>
    <style>
      .cls-1 {
        clip-path: url(#clippath);
      }

      .cls-2 {
        fill: none;
      }

      .cls-2, .cls-3, .cls-4, .cls-5, .cls-6 {
        stroke-width: 0px;
      }

      .cls-7 {
        mask: url(#mask);
      }

      .cls-3 {
        fill: #f39023;
      }

      .cls-4 {
        fill: #f09e24;
      }

      .cls-8 {
        mix-blend-mode: soft-light;
      }

      .cls-5 {
        fill: #f48023;
      }

      .cls-9 {
        isolation: isolate;
      }

      .cls-6 {
        fill: #fff;
      }

      .cls-10 {
        mask: url(#mask-2);
      }

      .cls-11 {
        mask: url(#mask-1);
      }
    </style>
    <clipPath id="clippath">
      <rect class="cls-2" width="30.5" height="32"/>
    </clipPath>
    <mask id="mask" x="7.7" y="7.9" width="22.8" height="24.1" maskUnits="userSpaceOnUse">
      <g id="mask0_3_10195" data-name="mask0 3 10195">
        <path class="cls-6" d="M30.5,7.9H7.7v24.1h22.8V7.9Z"/>
      </g>
    </mask>
    <mask id="mask-1" x="1.3" y="0" width="29.2" height="12.2" maskUnits="userSpaceOnUse">
      <g id="mask1_3_10195" data-name="mask1 3 10195">
        <path class="cls-6" d="M30.5,0H1.3v12.2h29.2V0Z"/>
      </g>
    </mask>
    <mask id="mask-2" x="0" y="1.3" width="12.3" height="30.7" maskUnits="userSpaceOnUse">
      <g id="mask2_3_10195" data-name="mask2 3 10195">
        <path class="cls-6" d="M12.3,1.3H0v30.7h12.3V1.3Z"/>
      </g>
    </mask>
  </defs>
  <g class="cls-9">
    <g id="Layer_1" data-name="Layer 1">
      <g class="cls-1">
        <g>
          <g class="cls-8">
            <g class="cls-7">
              <path class="cls-5" d="M30.2,10.9s0,0,0,0c0,0,0,0,0,0,0-.2.1-.3.1-.4.2-.7,0-1.6-.5-2-.2-.2-.5-.3-.5-.3l-1-.2h0c-.5,0-1,0-1.4.3l-10.3,8.2s0,0,0,0c-.4.3-.7.7-1,1,0,0,0,0,0,0l-7.7,11c-.4.5-.4,1.2,0,1.7l.8,1.1c.5.7,1.3.9,2.2,0l7.7-8.8c0,.8.3,1.5.9,2.1,1.2,1.2,3.3,1.1,4.5-.2,1.2-1.3,1.2-3.3,0-4.5-.6-.6-1.4-.8-2.2-.8l8.1-8.1c0,0,0-.1.1-.2"/>
            </g>
          </g>
          <g class="cls-8">
            <g class="cls-11">
              <path class="cls-3" d="M29.4,8.2l-11.1-2.4c.6-.4,1.2-1,1.4-1.8.4-1.7-.6-3.4-2.2-3.8-1.7-.4-3.4.6-3.8,2.2-.2.8,0,1.6.3,2.3L3.3,1.3c-.7-.2-1.4.2-1.7.8h0c-.4.9-.3,1.8-.3,1.8h0c0,.5.4,1.2.8,1.4l11.7,5.2s0,0,.1,0c.4.2.9.3,1.3.3,0,0,0,0,.1,0l12.8,1.3c.6,0,1.4-.6,1.7-.9,0,0,.4-.3.5-.8.2-.9-.1-2-1-2.2"/>
            </g>
          </g>
          <g class="cls-8">
            <g class="cls-10">
              <path class="cls-4" d="M10.9,16.4s0,0,0-.1c0-.4-.2-.9-.3-1.3,0,0,0,0,0-.1L5.4,3.1c-.3-.6-.2-1.1-1.2-1.5l-.9-.3s-.5-.2-.9,0c0,0-.2,0-.4.2-.2.2-.3.4-.5.6,0,0,0,0,0,0,0,0,0,0,0,0,0,0,0,0,0,.1,0,0,0,0,0,0,0,0,0,0,0,0,0,0,0,0,0,.3,0,.4,0,.9,0,1.2l3.3,10.7c-.7-.4-1.5-.5-2.3-.3-1.7.4-2.7,2.1-2.2,3.8.4,1.7,2.1,2.7,3.8,2.2.8-.2,1.4-.7,1.9-1.4l2,10.6c.5.8,1.6,2.5,2.4,2.1l.4-.2c.6-.5,1.3-1.3,1.7-1.8l-1.4-13.5h0Z"/>
            </g>
          </g>
        </g>
      </g>
    </g>
  </g>
</svg>