<svg xmlns="http://www.w3.org/2000/svg" xmlns:xlink="http://www.w3.org/1999/xlink" width="600" height="400" viewBox="0 0 600 400">
  <defs>
    <clipPath id="clip-path">
      <rect x="33" y="-5" width="46.877" height="74.877" fill="none"/>
    </clipPath>
    <clipPath id="clip-path-2">
      <rect id="Rectangle_81" data-name="Rectangle 81" width="500" height="250" transform="translate(0 0)" fill="#199ec5"/>
    </clipPath>
    <clipPath id="clip-path-3">
      <rect id="Rectangle_153" data-name="Rectangle 153" width="1294.874" height="751.964" fill="none"/>
    </clipPath>
    <clipPath id="clip-Twee_kolom">
      <rect width="600" height="400"/>
    </clipPath>
  </defs>
  <g id="Twee_kolom" data-name="Twee kolom" clip-path="url(#clip-Twee_kolom)">
    <rect width="600" height="400" fill="#fff"/>
    <g id="Scroll_Group_3" data-name="Scroll Group 3" transform="translate(17.562 180)" clip-path="url(#clip-path)" style="isolation: isolate">
      <g id="Icon_feather-image" data-name="Icon feather-image">
        <path id="Path_186" data-name="Path 186" d="M10.429,1.5H57.448a8.939,8.939,0,0,1,8.929,8.929V57.448a8.939,8.939,0,0,1-8.929,8.929H10.429A8.939,8.939,0,0,1,1.5,57.448V10.429A8.939,8.939,0,0,1,10.429,1.5ZM57.448,61.953a4.51,4.51,0,0,0,4.505-4.505V10.429a4.51,4.51,0,0,0-4.505-4.505H10.429a4.51,4.51,0,0,0-4.505,4.505V57.448a4.51,4.51,0,0,0,4.505,4.505Z" transform="translate(-1.5 -1.5)" fill="#fff"/>
        <path id="Path_187" data-name="Path 187" d="M14.749,7.5A7.249,7.249,0,1,1,7.5,14.749,7.258,7.258,0,0,1,14.749,7.5Zm0,10.076a2.826,2.826,0,1,0-2.826-2.826A2.829,2.829,0,0,0,14.749,17.576Z" transform="translate(5.934 5.934)" fill="#fff"/>
        <path id="Path_188" data-name="Path 188" d="M6.712,53.367a2.212,2.212,0,0,1-1.564-3.776L42.091,12.648a2.212,2.212,0,0,1,3.128,0L62.012,29.44a2.212,2.212,0,0,1-3.128,3.128L43.655,17.34,8.276,52.719A2.2,2.2,0,0,1,6.712,53.367Z" transform="translate(2.217 11.51)" fill="#fff"/>
      </g>
    </g>
    <g id="Group_1029" data-name="Group 1029" transform="translate(50 75)">
      <path id="Path_5475" data-name="Path 5475" d="M16,0H484a16,16,0,0,1,16,16V234a16,16,0,0,1-16,16H16A16,16,0,0,1,0,234V16A16,16,0,0,1,16,0Z" transform="translate(0 0)" fill="#199ec5"/>
    </g>
    <g id="Group_1064" data-name="Group 1064" transform="translate(-30.107 23.517)">
      <rect id="Rectangle_2451" data-name="Rectangle 2451" width="43" height="6" rx="3" transform="translate(378.107 111.483)" fill="#fff" opacity="0.76"/>
      <rect id="Rectangle_2452" data-name="Rectangle 2452" width="75" height="6" rx="3" transform="translate(378.107 136.483)" fill="#fff" opacity="0.76"/>
      <rect id="Rectangle_2453" data-name="Rectangle 2453" width="49" height="6" rx="3" transform="translate(378.107 162.483)" fill="#fff" opacity="0.76"/>
      <rect id="Rectangle_2454" data-name="Rectangle 2454" width="45" height="6" rx="3" transform="translate(378.107 188.483)" fill="#fff" opacity="0.76"/>
      <rect id="Rectangle_2455" data-name="Rectangle 2455" width="49" height="6" rx="3" transform="translate(378.107 214.483)" fill="#fff" opacity="0.76"/>
      <rect id="Rectangle_2456" data-name="Rectangle 2456" width="39" height="6" rx="3" transform="translate(378.107 239.483)" fill="#fff" opacity="0.76"/>
    </g>
    <g id="Group_1068" data-name="Group 1068" transform="translate(0 -26)">
      <g id="Group_1065" data-name="Group 1065">
        <rect id="Rectangle_2459" data-name="Rectangle 2459" width="67" height="8" rx="4" transform="translate(202 234)" fill="#fff"/>
        <g id="Ellipse_44" data-name="Ellipse 44" transform="translate(176 229)" fill="none" stroke="#fff" stroke-width="2">
          <circle cx="9" cy="9" r="9" stroke="none"/>
          <circle cx="9" cy="9" r="8" fill="none"/>
        </g>
      </g>
      <g id="Group_1066" data-name="Group 1066">
        <rect id="Rectangle_2458" data-name="Rectangle 2458" width="49" height="8" rx="4" transform="translate(202 200)" fill="#fff"/>
        <g id="Ellipse_45" data-name="Ellipse 45" transform="translate(176 195)" fill="none" stroke="#fff" stroke-width="2">
          <circle cx="9" cy="9" r="9" stroke="none"/>
          <circle cx="9" cy="9" r="8" fill="none"/>
        </g>
      </g>
      <g id="Group_1067" data-name="Group 1067">
        <rect id="Rectangle_2457" data-name="Rectangle 2457" width="55" height="8" rx="4" transform="translate(202 166)" fill="#fff"/>
        <g id="Ellipse_46" data-name="Ellipse 46" transform="translate(176 161)" fill="none" stroke="#fff" stroke-width="2">
          <circle cx="9" cy="9" r="9" stroke="none"/>
          <circle cx="9" cy="9" r="8" fill="none"/>
        </g>
      </g>
    </g>
  </g>
</svg>
