<?xml version="1.0" standalone="no"?>
<!DOCTYPE svg PUBLIC "-//W3C//DTD SVG 20010904//EN"
 "http://www.w3.org/TR/2001/REC-SVG-20010904/DTD/svg10.dtd">
<svg version="1.0" xmlns="http://www.w3.org/2000/svg"
 width="260.000000pt" height="260.000000pt" viewBox="0 0 260.000000 260.000000"
 preserveAspectRatio="xMidYMid meet">
<metadata>
Created by potrace 1.14, written by Peter Selinger 2001-2017
</metadata>
<g transform="translate(0.000000,260.000000) scale(0.100000,-0.100000)"
fill="#000000" stroke="none">
<path d="M1335 2524 c-100 -35 -165 -128 -161 -230 1 -32 6 -72 10 -87 l8 -28
-38 15 c-78 30 -792 246 -814 246 -49 0 -95 -47 -107 -110 -15 -74 -11 -117
16 -199 24 -69 81 -249 86 -271 6 -23 32 -111 55 -185 90 -290 91 -291 60
-275 -31 17 -111 19 -160 4 -126 -38 -197 -182 -152 -312 20 -59 87 -123 149
-143 92 -30 194 -4 256 64 15 17 28 25 28 19 1 -7 2 -15 3 -19 1 -5 6 -30 11
-58 4 -27 9 -54 11 -60 3 -15 25 -126 30 -155 2 -14 7 -36 10 -50 3 -14 8 -36
10 -50 3 -14 9 -48 15 -76 5 -28 12 -64 15 -80 2 -16 7 -42 11 -59 4 -16 8
-34 9 -40 4 -21 15 -92 19 -127 6 -46 30 -86 84 -143 85 -89 116 -75 298 131
76 88 150 172 164 188 13 15 33 38 44 50 11 12 74 84 140 159 115 131 120 136
126 110 31 -146 169 -227 306 -182 200 65 246 326 77 437 -25 17 -65 34 -88
37 l-43 7 315 316 c172 175 320 331 328 349 24 56 5 151 -35 172 -31 17 -105
41 -127 41 -11 0 -99 18 -196 40 -96 21 -186 41 -199 44 -68 12 -354 78 -358
82 -3 2 5 11 17 20 12 8 34 36 49 62 24 40 28 58 28 122 0 79 -18 124 -69 172
-58 55 -165 78 -241 52z m-581 -608 c21 -10 133 -60 250 -110 241 -106 257
-111 371 -122 33 -3 71 -7 85 -9 14 -2 57 -6 95 -10 39 -3 84 -8 100 -10 35
-4 184 -18 203 -18 17 0 14 -4 -148 -132 -74 -59 -144 -114 -155 -124 -11 -9
-54 -44 -95 -77 -94 -76 -122 -110 -235 -274 -155 -226 -205 -293 -206 -279
-1 8 -3 23 -4 34 -1 11 -5 49 -9 85 -3 36 -8 83 -11 105 -8 71 -14 138 -21
215 -10 131 -26 176 -156 470 -118 264 -126 285 -110 277 4 -2 24 -12 46 -21z"/>
</g>
</svg>
